<svg width="42" height="44" viewBox="0 0 42 44" fill="none" xmlns="http://www.w3.org/2000/svg">
<rect x="0.84436" y="38.9113" width="10.5819" height="4.91532" fill="#EA5B6F"/>
<path d="M0.84436 6.95612C0.84436 5.3196 1.64673 3.78707 2.9917 2.85472L6.13531 0.675529L9.27892 2.85472C10.6239 3.78707 11.4263 5.3196 11.4263 6.95612V37.4914H0.84436V6.95612Z" fill="#EA5B6F"/>
<rect x="15.8561" y="38.9113" width="10.5819" height="4.91532" fill="#EA5B6F"/>
<path d="M15.8561 6.95612C15.8561 5.3196 16.6584 3.78707 18.0034 2.85472L21.147 0.675529L24.2906 2.85472C25.6356 3.78707 26.438 5.3196 26.438 6.95612V37.4914H15.8561V6.95612Z" fill="#EA5B6F"/>
<rect x="30.8691" y="38.9113" width="10.5819" height="4.91532" fill="#EA5B6F"/>
<path d="M30.8691 6.95612C30.8691 5.3196 31.6715 3.78707 33.0164 2.85472L36.16 0.675529L39.3036 2.85472C40.6486 3.78707 41.451 5.3196 41.451 6.95612V37.4914H30.8691V6.95612Z" fill="#EA5B6F"/>
</svg>
