<svg width="44" height="49" viewBox="0 0 44 49" fill="none" xmlns="http://www.w3.org/2000/svg">
<path fill-rule="evenodd" clip-rule="evenodd" d="M22.8629 48.9437H21.0749C20.6049 48.9437 20.1529 48.7857 19.8429 48.5077L17.4689 46.9437H26.4689L24.0929 48.5077C23.7849 48.7857 23.3329 48.9437 22.8629 48.9437ZM26.5529 44.9437H17.4369C16.8849 44.9437 16.4369 44.4977 16.4369 43.9437C16.4369 43.3917 16.8849 42.9437 17.4369 42.9437H26.5529C27.1049 42.9437 27.5529 43.3917 27.5529 43.9437C27.5529 44.4977 27.1049 44.9437 26.5529 44.9437ZM23.5389 40.9437C23.8429 31.5337 29.9969 27.1397 29.9969 22.4337C29.9969 17.7617 26.3389 14.9437 22.0129 14.9437C18.0669 14.9437 13.9949 17.4077 13.9949 22.4517C13.9949 27.1457 20.3729 32.4577 20.4449 40.9437H16.4229C16.3909 32.9577 9.99493 29.6697 9.99493 22.4357C9.99493 15.3617 15.6689 10.8897 22.1309 10.9437C28.7049 11.0497 33.9989 15.6317 33.9989 22.4377C33.9989 29.6897 27.6209 32.7937 27.5689 40.9437H23.5389ZM37.4729 26.4857L42.8709 28.9337L41.2169 32.5777L36.0249 30.2237C36.6269 29.0237 37.1249 27.7937 37.4729 26.4857ZM6.51893 26.4857C6.86493 27.8137 7.34893 29.0077 7.95693 30.2257L2.77293 32.5777L1.11893 28.9337L6.51893 26.4857ZM43.9949 22.9437H37.9889C38.0309 21.6037 37.9089 20.2537 37.6189 18.9437H43.9949V22.9437ZM6.00093 22.9437H-0.00506592V18.9437H6.36893C6.08293 20.2517 5.96293 21.5957 6.00093 22.9337V22.9437ZM34.0809 12.0877L39.0509 8.5617L41.3669 11.8237L36.3569 15.3777C35.7729 14.2137 35.0169 13.1137 34.0809 12.0877ZM9.90693 12.0857C8.98693 13.0917 8.23293 14.1857 7.63093 15.3757L2.62493 11.8237L4.93893 8.5617L9.90693 12.0857ZM27.6449 7.9017L30.2989 2.5217L33.8849 4.2917L31.2309 9.67169C30.1169 8.93769 28.9089 8.3437 27.6449 7.9017ZM16.3429 7.8977C15.0809 8.3377 13.8709 8.9297 12.7549 9.6657L10.1029 4.2917L13.6909 2.5217L16.3429 7.8977ZM23.9949 7.0657C22.6589 6.9097 21.3769 6.9017 19.9949 7.0597V0.943695H23.9949V7.0657Z" fill="#565656"/>
</svg>
