<svg width="88" height="101" viewBox="0 0 88 101" fill="none" xmlns="http://www.w3.org/2000/svg">
<path d="M0.762939 0.338943H87.7195V56.8607L44.2412 100.339L0.762939 56.8607V0.338943Z" fill="#2B2B2B"/>
<mask id="mask0_416_71" style="mask-type:luminance" maskUnits="userSpaceOnUse" x="0" y="0" width="88" height="101">
<path d="M0.762939 0.338943H87.7195V56.8607L44.2412 100.339L0.762939 56.8607V0.338943Z" fill="white"/>
</mask>
<g mask="url(#mask0_416_71)">
<path d="M87.7195 0.338943H0.762939V30.7737H87.7195V0.338943Z" fill="#FF894F"/>
<path d="M87.7195 30.7737H0.762939V100.339H87.7195V30.7737Z" fill="#565656"/>
</g>
<path d="M44.2412 61.752C56.5475 61.752 66.5238 51.7757 66.5238 39.4693C66.5238 27.163 56.5475 17.1867 44.2412 17.1867C31.9349 17.1867 21.9586 27.163 21.9586 39.4693C21.9586 51.7757 31.9349 61.752 44.2412 61.752Z" stroke="white" stroke-width="15.6148"/>
<path d="M46.6869 15.8281C46.6869 14.4774 45.5919 13.3824 44.2412 13.3824C42.8905 13.3824 41.7956 14.4774 41.7956 15.8281V23.9802C41.7956 25.3309 42.8905 26.4259 44.2412 26.4259C45.5919 26.4259 46.6869 25.3309 46.6869 23.9802V15.8281Z" fill="#565656"/>
<path d="M46.6869 54.9585C46.6869 53.6078 45.5919 52.5128 44.2412 52.5128C42.8905 52.5128 41.7956 53.6078 41.7956 54.9585V63.1106C41.7956 64.4613 42.8905 65.5563 44.2412 65.5563C45.5919 65.5563 46.6869 64.4613 46.6869 63.1106V54.9585Z" fill="#565656"/>
<path d="M28.7521 37.0237H20.5999C19.2492 37.0237 18.1543 38.1186 18.1543 39.4693C18.1543 40.82 19.2492 41.915 20.5999 41.915H28.7521C30.1028 41.915 31.1977 40.82 31.1977 39.4693C31.1977 38.1186 30.1028 37.0237 28.7521 37.0237Z" fill="#565656"/>
<path d="M67.8825 37.0237H59.7303C58.3796 37.0237 57.2847 38.1186 57.2847 39.4693C57.2847 40.82 58.3796 41.915 59.7303 41.915H67.8825C69.2332 41.915 70.3281 40.82 70.3281 39.4693C70.3281 38.1186 69.2332 37.0237 67.8825 37.0237Z" fill="#565656"/>
</svg>
